<svg xmlns="http://www.w3.org/2000/svg" width="40.148" height="40.088" viewBox="0 0 40.148 40.088"><defs><style>.a{fill:#e3e3e3;}.b{fill:#eb5b6d;}</style></defs><g transform="translate(-391 -659)"><g transform="translate(391 659)"><path class="a" d="M20.074,0A20.044,20.044,0,1,1,0,20.074,20.071,20.071,0,0,1,20.074,0Z"/></g><g transform="translate(401.217 668.616)"><g transform="translate(0 6.572)"><path class="b" d="M1.082,14A1.077,1.077,0,0,1,0,12.922V1.082A1.077,1.077,0,0,1,1.082,0H2.4a.464.464,0,0,1,.421.481A.411.411,0,0,1,2.4.9H1.082a.259.259,0,0,0-.24.24v11.84a.259.259,0,0,0,.24.24H19.473a.259.259,0,0,0,.24-.24V1.082a.259.259,0,0,0-.24-.24H12.261A.51.51,0,0,1,11.78.421C11.72.18,12.02,0,12.261,0h7.272a1.077,1.077,0,0,1,1.082,1.082v11.84A1.077,1.077,0,0,1,19.533,14Z"/></g><g transform="translate(4.601 0)"><path class="b" d="M1.743,17.971a.411.411,0,0,1-.421-.421V16.228a.259.259,0,0,0-.24-.24.411.411,0,0,1-.421-.421V14.244A.259.259,0,0,0,.421,14,.411.411,0,0,1,0,13.583V1.743a.411.411,0,0,1,.421-.421.259.259,0,0,0,.24-.24V.421A.411.411,0,0,1,1.082,0H2.4a.411.411,0,0,1,.421.421v.661a.259.259,0,0,0,.24.24.411.411,0,0,1,.421.421V2.4a.259.259,0,0,0,.24.24h.361A1.463,1.463,0,0,1,5.529,4.087V9.616a.51.51,0,0,1-.421.481.51.51,0,0,1-.481-.421V4.027a.539.539,0,0,0-.541-.541.639.639,0,0,0-.6.541v9.616a.411.411,0,0,1-.421.421.259.259,0,0,0-.24.24v1.322a.411.411,0,0,1-.421.421.259.259,0,0,0-.24.24V17.61C2.224,17.79,1.983,17.971,1.743,17.971ZM1.082,2.224A.159.159,0,0,0,.9,2.4V12.922a.259.259,0,0,0,.24.24H2.4a.259.259,0,0,0,.24-.24V2.4a.259.259,0,0,0-.24-.24H1.082Z"/></g><g transform="translate(9.859 17.088)"><path class="b" d="M.421.9A.411.411,0,0,1,0,.481.464.464,0,0,1,.421,0H7.693a.464.464,0,0,1,.421.481A.411.411,0,0,1,7.693.9Z"/></g><g transform="translate(12.03 8.544)"><g transform="translate(0)"><path class="b" d="M1.729,7.453a.411.411,0,0,1-.421-.421v-.12a.159.159,0,0,0-.18-.18A2.009,2.009,0,0,1-.014,5.65c-.06-.24,0-.481.24-.541h.18a.452.452,0,0,1,.421.3,1.024,1.024,0,0,0,1.322.361c.06-.06.12-.06.18-.12a.7.7,0,0,0,.24-.6c0-.481-.661-.781-1.022-.962C.166,3.606-.014,2.765-.014,2.344a1.513,1.513,0,0,1,.541-1.2,1.247,1.247,0,0,1,.6-.361c.06-.06.12-.12.12-.18V.421A.51.51,0,0,1,1.729,0a.51.51,0,0,1,.481.421V.6a.159.159,0,0,0,.18.18A1.536,1.536,0,0,1,3.472,1.8a.451.451,0,0,1-.24.541h-.18A.342.342,0,0,1,2.63,2.1a.987.987,0,0,0-1.322-.421c-.06,0-.12.06-.18.12a.7.7,0,0,0-.24.6c0,.481.661.781,1.022.962,1.382.541,1.623,1.322,1.623,1.8a1.513,1.513,0,0,1-.541,1.2,1.247,1.247,0,0,1-.6.361c-.06.06-.12.12-.12.18v.12A.577.577,0,0,1,1.729,7.453Z" transform="translate(0.036)"/></g></g></g></g></svg>