<svg xmlns="http://www.w3.org/2000/svg" width="73.264" height="72.231" viewBox="0 0 73.264 72.231"><defs><style>.a{fill:#939393;}</style></defs><path class="a" d="M10.348,69.324A9.265,9.265,0,0,1,4.971,67.6l1.606-2.251a6.44,6.44,0,0,0,3.756,1.2v2.767ZM1.616,63.087a9.428,9.428,0,0,1-.5-3.025V57.811H3.881v2.251a6.224,6.224,0,0,0,.358,2.122ZM3.867,52.936H1.1V48.061H3.867Zm0-9.749H1.1V38.312H3.867Zm0-9.749H1.1V28.563H3.867Zm0-9.749H1.1V18.813H3.867Zm0-9.749H1.1V12.462a9.228,9.228,0,0,1,.846-3.871L4.455,9.738a6.554,6.554,0,0,0-.588,2.724ZM64.4,11.888a6.547,6.547,0,0,0-1.52-3.656L64.987,6.44a9.2,9.2,0,0,1,2.179,5.2ZM7.122,6.827,5.745,4.433a9.22,9.22,0,0,1,4.6-1.233h.774V5.967h-.774A6.358,6.358,0,0,0,7.122,6.827Zm52.4-.674a6.515,6.515,0,0,0-1.577-.2H54.994V3.2h2.939a9.127,9.127,0,0,1,2.251.272Zm-9.405-.186H45.245V3.2h4.875Zm-9.749,0H35.5V3.2H40.37Zm-9.749,0H25.746V3.2h4.875Zm-9.749,0H16V3.2h4.875Z" transform="translate(-1.1 -3.2)"/><g transform="translate(7.627 6.61)"><path class="a" d="M335.784,131.1a7.384,7.384,0,1,0,7.384,7.384A7.392,7.392,0,0,0,335.784,131.1Zm0,11.9a4.516,4.516,0,1,1,4.516-4.516A4.516,4.516,0,0,1,335.784,143Z" transform="translate(-289.101 -119.372)"/><path class="a" d="M111.907,49.3H62.544A8.254,8.254,0,0,0,54.3,57.544v48.145l.229,2.882a8.271,8.271,0,0,0,8.029,6.351h49.134a8.254,8.254,0,0,0,8.244-8.244V57.544A8.278,8.278,0,0,0,111.907,49.3Zm5.147,57.364a5.378,5.378,0,0,1-5.376,5.376H62.544a5.4,5.4,0,0,1-5.032-3.47,5.236,5.236,0,0,1-.344-1.907V99.05L73.612,71.179a2.694,2.694,0,0,1,2.38-1.333,2.665,2.665,0,0,1,2.323,1.405l7.083,13,10.294,18.911a1.43,1.43,0,0,0,1.262.746,1.483,1.483,0,0,0,.688-.172,1.435,1.435,0,0,0,.573-1.95l-3.341-6.136a5.861,5.861,0,0,0,4.057-1.362l6.452-5.348a2.721,2.721,0,0,1,3.556.086l.33.315,2.867,2.624,4.918,4.516v10.179Zm0-14.065-4.918-4.516L109.269,85.9a5.563,5.563,0,0,0-5.721.846L97.1,92.1a3.007,3.007,0,0,1-2.538.645,3.054,3.054,0,0,1-2.122-1.548l-4.531-8.3-2.523-4.645h0l-4.559-8.373a5.57,5.57,0,0,0-9.692-.172L57.167,93.416V57.544a5.378,5.378,0,0,1,5.376-5.376h46.725l2.867.014a5.384,5.384,0,0,1,4.918,5.362Z" transform="translate(-54.3 -49.3)"/></g><path class="a" d="M54.3,443.5a16.455,16.455,0,0,0,.244,2.824" transform="translate(-46.673 -380.373)"/></svg>