<svg xmlns="http://www.w3.org/2000/svg" width="13.766" height="13.748" viewBox="0 0 13.766 13.748"><defs><style>.a{fill:#eb5b6d;}</style></defs><rect class="a" width="3.206" height="9.163" transform="translate(0 4.582)"/><path class="a" d="M369.2,420.023a1.6,1.6,0,1,0,1.6,1.6A1.6,1.6,0,0,0,369.2,420.023Z" transform="translate(-367.592 -420.023)"/><path class="a" d="M402.419,446.592c-.215-1.727-1.08-2.815-3.414-2.815-1.657,0-2.316.259-2.7.981h0v-.981h-2.6v9.163h2.673v-4.793c0-1.2.229-2.1,1.707-2.1,1.459,0,1.577,1.113,1.577,2.179v4.719h2.749S402.47,447,402.419,446.592Z" transform="translate(-388.675 -439.196)"/></svg>