<svg xmlns="http://www.w3.org/2000/svg" width="16.918" height="13.749" viewBox="0 0 16.918 13.749"><defs><style>.a{fill:#eb5b6d;}</style></defs><path class="a" d="M42.016,35.655a6.923,6.923,0,0,1-1.993.546,3.48,3.48,0,0,0,1.527-1.92,6.949,6.949,0,0,1-2.2.84,3.473,3.473,0,0,0-5.914,3.165,9.851,9.851,0,0,1-7.153-3.626,3.474,3.474,0,0,0,1.074,4.633,3.446,3.446,0,0,1-1.572-.435V38.9a3.472,3.472,0,0,0,2.783,3.4,3.484,3.484,0,0,1-1.567.06,3.474,3.474,0,0,0,3.242,2.408,7,7,0,0,1-5.14,1.44A9.868,9.868,0,0,0,40.3,37.9c0-.153,0-.3-.01-.449a7.037,7.037,0,0,0,1.732-1.8Z" transform="translate(-25.1 -34.026)"/></svg>